<?xml version="1.0" encoding="utf-8"?>
<!-- Generator: Adobe Illustrator 18.0.0, SVG Export Plug-In . SVG Version: 6.00 Build 0)  -->
<!DOCTYPE svg PUBLIC "-//W3C//DTD SVG 1.1//EN" "http://www.w3.org/Graphics/SVG/1.1/DTD/svg11.dtd">
<svg version="1.1" id="Layer_1" xmlns="http://www.w3.org/2000/svg" xmlns:xlink="http://www.w3.org/1999/xlink" x="0px" y="0px"
	 viewBox="0 0 120 66" enable-background="new 0 0 120 66" xml:space="preserve">
<g>
	<rect x="23" y="21" fill="#FF6F48" width="75" height="2"/>
	<g>
		<g>
			<path fill="#FF6F48" d="M60,56.3c-8.5,0-15.5-6.9-15.5-15.5S51.5,25.4,60,25.4s15.5,6.9,15.5,15.5S68.5,56.3,60,56.3z M60,27.5
				c-7.4,0-13.4,6-13.4,13.4s6,13.4,13.4,13.4s13.4-6,13.4-13.4S67.4,27.5,60,27.5z"/>
		</g>
		<path fill="#FF6F48" d="M59.7,52.7c-3.1,0-5.9-1.2-8.1-3.4c-4.5-4.5-4.5-11.7,0-16.2l1.5,1.5c-3.6,3.6-3.6,9.6,0,13.2
			c1.8,1.8,4.1,2.7,6.6,2.7s4.8-1,6.6-2.7l1.5,1.5C65.6,51.5,62.7,52.7,59.7,52.7z"/>
	</g>
	<g>
		<polygon fill="#FF6F48" points="40.2,10.1 39.5,7.7 30.7,7.7 30,10.1 27.9,9.5 29.1,5.5 41.1,5.5 42.3,9.5 		"/>
	</g>
	<path fill="#FF6F48" d="M91.5,60.5H28.5c-3.9,0-7.1-3.2-7.1-7.1V16c0-3.9,3.2-7.1,7.1-7.1h62.9c3.9,0,7.1,3.2,7.1,7.1v37.5
		C98.5,57.4,95.4,60.5,91.5,60.5z M28.5,11.1c-2.7,0-4.9,2.2-4.9,4.9v37.5c0,2.7,2.2,4.9,4.9,4.9h62.9c2.7,0,4.9-2.2,4.9-4.9V16
		c0-2.7-2.2-4.9-4.9-4.9H28.5z"/>
	<rect x="79.6" y="16" fill="#FF6F48" width="11.9" height="2.2"/>
</g>
</svg>
