<?xml version="1.0" encoding="utf-8"?>
<!-- Generator: Adobe Illustrator 18.0.0, SVG Export Plug-In . SVG Version: 6.00 Build 0)  -->
<!DOCTYPE svg PUBLIC "-//W3C//DTD SVG 1.1//EN" "http://www.w3.org/Graphics/SVG/1.1/DTD/svg11.dtd">
<svg version="1.1" id="Layer_1" xmlns="http://www.w3.org/2000/svg" xmlns:xlink="http://www.w3.org/1999/xlink" x="0px" y="0px"
	 viewBox="0 0 120 66" enable-background="new 0 0 120 66" xml:space="preserve">
<g>
	<path fill="#FF6F48" d="M60,63.9c-3.3,0-5.9-2.7-5.9-5.9c0,0,0-0.1,0-0.1v-9.5c0,0,0-0.1,0-0.1c0-3.3,2.7-5.9,5.9-5.9
		c3.2,0,5.8,2.5,5.9,5.6c0,0.1,0,0.2,0,0.3V58c0,0.1,0,0.2,0,0.3C65.8,61.4,63.2,63.9,60,63.9z M56,58.1c0,2.2,1.8,4,4,4
		c2.2,0,4-1.8,4-4c0,0,0,0,0-0.1c0-0.1,0-0.2,0-0.3v-9.2c0-0.1,0-0.2,0-0.3c0-2.2-1.8-4-4-4c-2.2,0-4,1.8-4,4c0,0,0,0.1,0,0.1
		L56,58.1C56,58,56,58,56,58.1z"/>
	<g>
		<path fill="#FF6F48" d="M60,32.3c-2.4,0-4.4-2-4.4-4.4s2-4.4,4.4-4.4s4.4,2,4.4,4.4S62.4,32.3,60,32.3z M60,25.4
			c-1.4,0-2.5,1.1-2.5,2.5c0,1.4,1.1,2.5,2.5,2.5c1.4,0,2.5-1.1,2.5-2.5C62.5,26.5,61.4,25.4,60,25.4z"/>
	</g>
	<path fill="#FF6F48" d="M76.7,5h-5.6c-0.2,0-0.4,0.2-0.6,0.4L67.5,8c-0.7-3.5-3.8-6-7.5-6c-3.7,0-6.7,2.6-7.5,6.1l-3.1-2.7
		C49.3,5.2,49,5,48.8,5h-5.6c-0.5,0-1,0.5-1,1s0.4,1,1,1h5.2l3.9,3.4c0.4,3.9,3.7,7,7.6,7c4,0,7.2-3.1,7.6-7L71.5,7h5.2
		c0.5,0,1-0.5,1-1S77.3,5,76.7,5z M60,15.5c-3.2,0-5.8-2.6-5.8-5.8S56.8,4,60,4c3.2,0,5.8,2.6,5.8,5.8S63.2,15.5,60,15.5z"/>
	<path fill="#FF6F48" d="M74.7,50.4l-2.9-23.3c0,0,0-0.6,0-0.7c-0.1-4.9-4.1-9.5-9-9.5h-5.8c-4.9,0-9,4.7-9,9.5
		c0,0.4-1.9,15.7-2.8,23.6c0,0,0-0.4,0-0.3c0,3.2,2.6,5.3,5.7,5.3h4v-2h-4c-2.1,0-3.8-1-3.8-3.1C50,26.7,50,26.4,50,26.3
		c0-3.9,3.2-7.3,7.1-7.3h5.8c3.9,0,7.1,3.8,7.1,7.6c0,0.1,0,0.5,0,0.5l2.8,22.6c0,2.1-1.7,3.2-3.8,3.2h-5v2h5c3.2,0,5.7-2,5.7-5.1
		C74.7,49.9,74.7,50.4,74.7,50.4z"/>
</g>
</svg>
