<?xml version="1.0" encoding="utf-8"?>
<!-- Generator: Adobe Illustrator 18.0.0, SVG Export Plug-In . SVG Version: 6.00 Build 0)  -->
<!DOCTYPE svg PUBLIC "-//W3C//DTD SVG 1.1//EN" "http://www.w3.org/Graphics/SVG/1.1/DTD/svg11.dtd">
<svg version="1.1" id="Layer_1" xmlns="http://www.w3.org/2000/svg" xmlns:xlink="http://www.w3.org/1999/xlink" x="0px" y="0px"
	 viewBox="0 0 120 66" enable-background="new 0 0 120 66" xml:space="preserve">
<path fill="#FF6F48" d="M86.1,10.8C80.2,5,72.5,1.7,64.2,1.6v0c-5.8,0-11.2,1.5-15.9,4.2c-0.3,0-0.6-0.1-1-0.1
	c-2.9,0-5.5,1.4-7.1,3.7c-1.6-2.3-4.2-3.7-7.1-3.7c-4.7,0-8.6,3.9-8.6,8.6c0,2.1,0.8,4.1,2.2,5.7l0,0c0,0,0,0,0.1,0.1
	c0.3,0.3,0.6,0.6,0.8,0.8l5.6,5.4c-0.5,2.2-0.7,4.4-0.7,6.6c0,5,1.2,9.9,3.5,14.2v0h0c1.5,2.9,3.4,5.6,5.8,7.9
	c5.9,5.9,13.6,9.2,22.3,9.2c7.8,0,16.1-3.3,22-9.2C98.5,43,98.3,23,86.1,10.8z M60.4,3.9c-1.6,1.3-3.7,3.3-5.8,5.9
	c-0.9-1.3-2.1-2.4-3.5-3.1C54,5.2,57.2,4.3,60.4,3.9z M28.3,18.9C28.3,18.9,28.3,18.9,28.3,18.9C28.3,18.8,28.3,18.8,28.3,18.9
	c-1.1-1.3-1.7-2.8-1.7-4.5c0-3.7,3-6.7,6.7-6.7c2.7,0,5.1,1.6,6.2,4.1c0.1,0.4,0.5,0.6,0.9,0.6c0.4,0,0.7-0.2,0.9-0.6
	c1-2.5,3.5-4.1,6.2-4.1c3.7,0,6.7,3,6.7,6.7c0,1.6-0.6,3.2-1.7,4.4c0,0,0,0,0,0c0,0,0,0,0,0c-0.2,0.3-0.5,0.5-0.8,0.8L40.4,30.4
	L29,19.5C28.8,19.3,28.6,19.1,28.3,18.9z M34.6,33c0-1.7,0.2-3.4,0.5-5l4.7,4.5c0.2,0.2,0.4,0.3,0.7,0.3c0.2,0,0.5-0.1,0.7-0.3
	l6.3-6c-0.3,1.9-0.5,3.9-0.5,6.1c0,4.8,0.9,9.1,2.3,12.8H37.3C35.5,41.5,34.6,37.3,34.6,33z M43.3,53.8c-2-2-3.6-4.2-5-6.5h11.5
	c3.1,7.3,8,12.4,10.9,15C54.3,61.5,48,58.5,43.3,53.8z M62.3,61c-2.6-2.3-7.2-6.9-10.3-13.7h10.3V61z M62.3,45.3H51.2
	c-1.4-3.7-2.4-8-2.4-12.8c0-3.1,0.4-5.9,1-8.4l0.1-0.1h12.4V45.3z M62.3,22H51.9l1-1c0.3-0.3,0.7-0.6,0.9-0.9c0,0,0.1-0.1,0.1-0.1
	c1.4-1.6,2.1-3.6,2.1-5.6c0-1-0.2-1.9-0.5-2.7c2.4-3.3,5-5.5,6.7-6.8V22z M84.8,12.2c2.9,2.9,5.1,6.2,6.5,9.8H79.1
	c-3-9.2-8.9-15.4-12.3-18.3C73.6,4.4,79.9,7.3,84.8,12.2z M64.2,4.1C66.7,6,73.6,12.1,77,22H64.2V4.1z M64.2,24h13.4
	c0.8,2.9,1.3,6.1,1.3,9.6c0,4.5-0.8,8.4-2,11.8H64.2V24z M64.2,47.3h12c-3.6,8.5-9.8,13.3-12,14.8V47.3z M84.9,53.8
	c-4.9,4.9-11,7.8-17.7,8.5c3.1-2.5,8.1-7.4,11.2-15h11.4C88.5,49.6,86.8,51.8,84.9,53.8z M79,45.3c1.1-3.4,1.9-7.3,1.9-11.8
	c0-3.5-0.5-6.7-1.2-9.6H92c2.3,7,1.9,14.6-1.2,21.4H79z"/>
</svg>
