<?xml version="1.0" encoding="utf-8"?>
<!-- Generator: Adobe Illustrator 18.0.0, SVG Export Plug-In . SVG Version: 6.00 Build 0)  -->
<!DOCTYPE svg PUBLIC "-//W3C//DTD SVG 1.1//EN" "http://www.w3.org/Graphics/SVG/1.1/DTD/svg11.dtd">
<svg version="1.1" id="Layer_1" xmlns="http://www.w3.org/2000/svg" xmlns:xlink="http://www.w3.org/1999/xlink" x="0px" y="0px"
	 viewBox="0 0 120 66" enable-background="new 0 0 120 66" xml:space="preserve">
<g>
	<g>
		<path fill="#FF6F48" d="M65.4,19.1c-4.7,0-8.4-3.8-8.4-8.4c0-4.7,3.8-8.4,8.4-8.4s8.4,3.8,8.4,8.4C73.8,15.3,70,19.1,65.4,19.1z
			 M65.4,4.2c-3.5,0-6.4,2.9-6.4,6.4c0,3.5,2.9,6.4,6.4,6.4c3.5,0,6.4-2.9,6.4-6.4C71.8,7.1,68.9,4.2,65.4,4.2z"/>
	</g>
	<g>
		<path fill="#FF6F48" d="M99.9,63.8H54.5l22.7-39.3L99.9,63.8z M58.1,61.8h38.3L77.2,28.6L58.1,61.8z"/>
	</g>
	<g>
		<polygon fill="#FFFFFF" points="21.9,62.8 48.1,17.3 74.4,62.8 		"/>
		<path fill="#FF6F48" d="M76.2,63.8h-56l28-48.5L76.2,63.8z M23.7,61.8h49L48.1,19.4L23.7,61.8z"/>
	</g>
	<g>
		<polygon fill="#FF6F48" points="42.6,41.5 36.6,37.1 37.8,35.5 42,38.6 48.1,28.7 52.4,34.4 54.9,30 56.7,31 52.6,38.1 48.2,32.3 
					"/>
	</g>
</g>
</svg>
