<?xml version="1.0" encoding="utf-8"?>
<!-- Generator: Adobe Illustrator 18.0.0, SVG Export Plug-In . SVG Version: 6.00 Build 0)  -->
<!DOCTYPE svg PUBLIC "-//W3C//DTD SVG 1.1//EN" "http://www.w3.org/Graphics/SVG/1.1/DTD/svg11.dtd">
<svg version="1.1" id="Layer_1" xmlns="http://www.w3.org/2000/svg" xmlns:xlink="http://www.w3.org/1999/xlink" x="0px" y="0px"
	 viewBox="0 0 120 66" enable-background="new 0 0 120 66" xml:space="preserve">
<g>
	<g>
		<path fill="#FFFFFF" d="M38.7,33.6l10.8-16.9c0,0,2.3-4,6.2-5l3.7-0.7L45,33.5"/>
		<path fill="#FF6F48" d="M38.7,34.5c-0.2,0-0.4,0-0.5-0.2c-0.4-0.3-0.6-0.9-0.3-1.3l10.8-16.9c0.1-0.1,2.6-4.3,6.8-5.5l3.8-0.8
			c0.4-0.1,0.8,0.1,1,0.4c0.2,0.3,0.2,0.7,0,1.1L45.8,34c-0.3,0.4-0.9,0.6-1.3,0.3C44,34,43.9,33.4,44.2,33l13.2-20.7l-1.5,0.3
			c-3.4,1-5.6,4.6-5.6,4.6L39.5,34.1C39.3,34.4,39,34.5,38.7,34.5z"/>
	</g>
	<path fill="#FF6F48" d="M35.3,54.7c-0.1,0-0.3,0-0.4-0.1c-0.5-0.2-0.7-0.8-0.4-1.3l6.4-12.6c0.2-0.5,0.8-0.7,1.3-0.4
		c0.5,0.2,0.7,0.8,0.4,1.3l-6.4,12.6C36,54.5,35.7,54.7,35.3,54.7z"/>
	<path fill="#FF6F48" d="M38.1,36.1c-0.2-0.5-0.8-0.7-1.3-0.4l-7.5,4c0.6-1,0.9-2.1,1.1-3.2c0.3-2.1-0.3-4-1.6-5.3
		c-1.1-1.1-2.5-1.6-4.2-1.6c-2.4,0-4.8,1.1-6.7,3.1c-1.6,1.6-2.6,3.6-2.9,5.6c-0.3,2.1,0.3,4,1.6,5.3c1.1,1.1,2.5,1.6,4.2,1.6h0
		c1.3,0,2.7-0.4,3.9-1c0,0,0,0,0,0c0.2,0,0.3,0,0.4-0.1l12.5-6.6C38.1,37.2,38.3,36.6,38.1,36.1z M17.9,42.1
		c-0.9-0.9-1.3-2.2-1.1-3.7c0.2-1.6,1-3.2,2.3-4.5c1.5-1.6,3.5-2.5,5.3-2.5c1.2,0,2.2,0.4,2.9,1.1c0.9,0.9,1.3,2.2,1.1,3.7
		c-0.2,1.6-1,3.2-2.3,4.5c-1.5,1.6-3.5,2.5-5.3,2.5C19.6,43.2,18.6,42.9,17.9,42.1z"/>
	<g>
		
			<ellipse transform="matrix(-0.7009 0.7132 -0.7132 -0.7009 109.8382 65.3536)" fill="#FFFFFF" cx="41.2" cy="55.7" rx="7.7" ry="5.8"/>
		<path fill="#FF6F48" d="M39.4,63.5L39.4,63.5c-1.7,0-3.1-0.6-4.2-1.6c-2.7-2.6-2.1-7.6,1.2-11c1.9-1.9,4.4-3.1,6.7-3.1
			c1.7,0,3.1,0.6,4.2,1.6c2.7,2.6,2.1,7.6-1.2,11C44.2,62.4,41.7,63.5,39.4,63.5z M43.1,49.8c-1.8,0-3.8,0.9-5.3,2.5
			c-2.6,2.7-3.2,6.4-1.3,8.2c0.7,0.7,1.7,1.1,2.9,1.1h0c1.8,0,3.8-0.9,5.3-2.5c2.6-2.7,3.2-6.4,1.3-8.2
			C45.2,50.2,44.2,49.8,43.1,49.8z"/>
	</g>
	<g>
		<path fill="#FF6F48" d="M41.7,5.7c-0.2,0-0.5-0.1-0.7-0.3l-1.4-1.3c-0.4-0.4-0.4-1,0-1.4c0.4-0.4,1-0.4,1.4,0L42.3,4
			c0.4,0.4,0.4,1,0,1.4C42.2,5.6,41.9,5.7,41.7,5.7z"/>
		<path fill="#FF6F48" d="M66.8,39.2c-0.7,0-2.3,0-4-0.4c-0.5-0.1-0.8-0.6-0.7-1.1c0.1-0.5,0.6-0.8,1.1-0.7c1.5,0.3,3,0.4,3.5,0.4
			c0.5,0,1,0.4,1,1S67.4,39.2,66.8,39.2z M70.6,38.4c-0.4,0-0.8-0.3-0.9-0.8c-0.1-0.5,0.2-1,0.7-1.1l2.4-0.5
			c0.4-0.1,0.9-0.2,1.3-0.3c0.5-0.1,1,0.3,1.1,0.8c0.1,0.5-0.3,1-0.8,1.1c-0.4,0.1-0.8,0.1-1.2,0.2l-2.5,0.5
			C70.7,38.4,70.6,38.4,70.6,38.4z M59.6,37.2c-0.2,0-0.5-0.1-0.7-0.3l-0.1-0.1c-0.8-0.7-1.7-1.6-2.7-2.6c-0.4-0.4-0.4-1,0-1.4
			c0.4-0.4,1-0.4,1.4,0c0.9,0.9,1.9,1.8,2.6,2.5l0.1,0.1c0.4,0.4,0.4,1,0,1.4C60.1,37.1,59.9,37.2,59.6,37.2z M78.1,37.1
			c-0.5,0-0.9-0.3-0.9-0.8c-0.1-0.5,0.3-1,0.8-1.1c1.1-0.2,2.2-0.5,3.3-0.9l0.2-0.1c0.5-0.2,1.1,0.1,1.2,0.6
			c0.2,0.5-0.1,1.1-0.6,1.2l-0.2,0.1c-1.2,0.5-2.4,0.8-3.6,1C78.2,37.1,78.1,37.1,78.1,37.1z M89.1,36.9c-0.2,0-0.3,0-0.5-0.1
			c-0.6-0.3-1.7-0.9-3.2-1.1c-0.5-0.1-0.9-0.5-0.8-1.1c0.1-0.5,0.6-0.9,1.1-0.8c1.8,0.2,3.3,1,4,1.4c0.5,0.3,0.6,0.9,0.3,1.3
			C89.7,36.7,89.4,36.9,89.1,36.9z M54.4,31.6c-0.3,0-0.6-0.1-0.8-0.4c-0.9-1.2-1.4-2.3-1.5-3.3c0-0.2-0.1-0.3-0.1-0.5
			c-0.1-0.5,0.2-1,0.7-1.2c0.5-0.1,1,0.2,1.2,0.7c0.1,0.2,0.1,0.4,0.1,0.6c0.1,0.7,0.5,1.5,1.2,2.5c0.3,0.4,0.2,1-0.2,1.3
			C54.8,31.6,54.6,31.6,54.4,31.6z M52.6,24.4C52.6,24.4,52.5,24.4,52.6,24.4c-0.6-0.1-1-0.5-1-1.1c0.1-0.7,0.2-1.4,0.3-2.2
			c0-0.1,0-0.2,0-0.3c0-0.3,0-0.6-0.1-1c-0.1-0.5,0.3-1,0.8-1.1c0.5-0.1,1,0.3,1.1,0.8c0.1,0.5,0.1,1,0.1,1.4c0,0.3,0,0.5-0.1,0.7
			c-0.1,0.7-0.2,1.4-0.3,2C53.5,24,53.1,24.4,52.6,24.4z M51.8,16.9c-0.4,0-0.7-0.2-0.9-0.6c-0.5-1.3-1.1-2.4-1.7-3.1
			c-0.3-0.4-0.2-1,0.2-1.3c0.4-0.3,1-0.2,1.3,0.2c0.9,1.1,1.5,2.6,1.9,3.6c0.2,0.5,0,1.1-0.5,1.2C52,16.9,51.9,16.9,51.8,16.9z
			 M47.3,10.9c-0.2,0-0.5-0.1-0.7-0.3l-2.8-2.6c-0.4-0.4-0.4-1,0-1.4c0.4-0.4,1-0.4,1.4,0l2.8,2.6c0.4,0.4,0.4,1,0,1.4
			C47.8,10.8,47.5,10.9,47.3,10.9z"/>
		<path fill="#FF6F48" d="M93.3,40.7c-0.2,0-0.5-0.1-0.7-0.3l-1.4-1.3c-0.4-0.4-0.4-1,0-1.4c0.4-0.4,1-0.4,1.4,0l1.4,1.3
			c0.4,0.4,0.4,1,0,1.4C93.8,40.6,93.6,40.7,93.3,40.7z"/>
	</g>
	<g>
		<path fill="#FFFFFF" d="M45.1,39.8l16.7-11.1c0,0,3.9-2.4,4.9-6.3l0.7-3.7L45,33.5"/>
		<path fill="#FF6F48" d="M45.1,40.8c-0.3,0-0.6-0.2-0.8-0.4c-0.3-0.4-0.2-1,0.3-1.3l16.7-11.1c0.1,0,3.6-2.3,4.5-5.8l0.3-1.5
			L45.5,34.3c-0.4,0.3-1,0.2-1.3-0.3c-0.3-0.4-0.2-1,0.3-1.3l22.4-14.8c0.3-0.2,0.7-0.2,1.1,0c0.3,0.2,0.5,0.6,0.4,1l-0.7,3.7
			c-1.1,4.3-5.2,6.9-5.4,7L45.6,40.6C45.4,40.7,45.3,40.8,45.1,40.8z"/>
	</g>
	<g>
		<circle fill="#FFFFFF" cx="41.9" cy="36.7" r="4.5"/>
		<path fill="#FF6F48" d="M41.9,42.1L41.9,42.1c-1.4,0-2.8-0.6-3.8-1.6c-1-1-1.6-2.4-1.6-3.8c0-1.4,0.5-2.8,1.6-3.9
			c1-1,2.4-1.6,3.9-1.6c1.4,0,2.8,0.6,3.8,1.6c1,1,1.6,2.4,1.6,3.8c0,1.4-0.5,2.8-1.6,3.9C44.7,41.5,43.4,42.1,41.9,42.1z
			 M41.9,33.2c-0.9,0-1.8,0.4-2.5,1c-0.7,0.7-1,1.5-1,2.5c0,0.9,0.4,1.8,1,2.5c1.3,1.3,3.6,1.3,4.9,0c0.7-0.7,1-1.5,1-2.5
			c0-0.9-0.4-1.8-1-2.5C43.7,33.6,42.8,33.2,41.9,33.2z"/>
	</g>
	<path fill="#FF6F48" d="M104.2,46c-0.2,0-0.5-0.1-0.7-0.3l-8.4-7.8c-0.4-0.4-0.4-1,0-1.4c0.4-0.4,1-0.4,1.4,0l8.4,7.8
		c0.4,0.4,0.4,1,0,1.4C104.7,45.9,104.4,46,104.2,46z"/>
	<path fill="#FF6F48" d="M96.1,46.3c-0.2,0-0.5-0.1-0.7-0.3c-0.4-0.4-0.4-1,0-1.4l7.8-8.4c0.4-0.4,1-0.4,1.4,0c0.4,0.4,0.4,1,0,1.4
		L96.8,46C96.6,46.2,96.3,46.3,96.1,46.3z"/>
</g>
</svg>
