<?xml version="1.0" encoding="utf-8"?>
<!-- Generator: Adobe Illustrator 18.0.0, SVG Export Plug-In . SVG Version: 6.00 Build 0)  -->
<!DOCTYPE svg PUBLIC "-//W3C//DTD SVG 1.1//EN" "http://www.w3.org/Graphics/SVG/1.1/DTD/svg11.dtd">
<svg version="1.1" id="Layer_1" xmlns="http://www.w3.org/2000/svg" xmlns:xlink="http://www.w3.org/1999/xlink" x="0px" y="0px"
	 viewBox="0 0 120 66" enable-background="new 0 0 120 66" xml:space="preserve">
<g>
	<path fill="#FF6F48" d="M100.1,16.5c-0.1-0.7-0.5-1.2-1.1-1.6c-0.1-0.1-0.3-0.1-0.5-0.2c0.1-0.3,0.1-0.6,0-1
		c-0.1-0.7-0.5-1.2-1.1-1.6c-0.2-0.1-0.5-0.2-0.7-0.2c0-0.9-0.4-1.7-1.2-2.2C94.8,9.4,93.8,9.4,93,10c-0.2-0.2-0.3-0.3-0.5-0.4
		c-1.2-0.7-2.5-0.2-3.3,1.1l-2.7,4.6c-0.1-0.1-0.2-0.3-0.3-0.4c-0.5-0.5-1.1-0.7-1.7-0.7c0,0,0,0,0,0c-1.3,0-2.4,1.1-2.4,2.4l0,7.5
		c-0.1,1.3,0.2,2.5,0.8,3.7c-3.9,4.6-9.7,7.1-15.6,6.8c-0.2-0.4-0.4-0.8-0.6-1.2c0.1,0,0.1,0,0.2,0c1.1,0,2.8-0.1,3.8-1.2
		c0.6-0.6,0.8-1.4,0.8-2.3c-0.1-1.4,0.3-2.7,0.7-4.1c0.6-2.1,1.2-4.2,0.3-6.5c-0.9-2.2,0-3,1.6-4.5l0.3-0.3c0.3-0.3,0.9-0.6,1.4-0.9
		c1.2-0.7,2.5-1.4,2.6-2.9c0.1-1.2-0.8-2.5-2.9-4.1c-3.5-2.6-6.1-3.3-7.7-2.1c-0.7,0.5-1.4,0.7-2.3,0.7c-0.6,0-1.2-0.1-1.8-0.2
		c-0.7-0.1-1.3-0.2-2-0.2c-0.8,0-1.5,0.1-2.2,0.4c0.1-1.2-0.1-2-0.6-2.6C58.4,2.3,57.9,2,57,2c-0.7,0-1.4,0.2-2.4,0.7
		c-0.4,0.2-0.7,0.3-1.1,0.5c-1.8,0.7-4.5,1.7-3.2,5.7c2.6,8.5,1.4,16.6-3.9,24.8c-3.5-1.1-6.7-3.1-9.2-6c0.4-0.8,0.7-1.6,0.8-2.5
		c0,0,0-0.4,0-0.4c0-0.2,0-0.4,0-0.7l0-7.7c0-0.6-0.3-1.2-0.7-1.7c-0.5-0.5-1.1-0.7-1.7-0.7c-0.6,0-1.2,0.3-1.7,0.7
		c-0.1,0.1-0.2,0.3-0.3,0.4l-2.7-4.5c-0.3-0.6-0.8-1-1.3-1.2c-0.6-0.3-1.3-0.2-2,0.2C27.4,9.7,27.2,9.8,27,10
		c-0.8-0.5-1.8-0.6-2.5-0.2c-0.8,0.5-1.2,1.3-1.2,2.2c-0.3,0-0.5,0.1-0.7,0.2c-0.6,0.4-1,0.9-1.1,1.6c-0.1,0.3,0,0.6,0,1
		c-0.2,0-0.3,0.1-0.5,0.2c-0.6,0.4-1,0.9-1.1,1.6c-0.1,0.6,0,1.3,0.3,1.8l5.5,9.5c0.8,1.4,2.1,2.4,3.6,2.9
		c3.1,6.4,8.9,10.9,15.5,12.5c0.9,1.8,2.5,3.1,4.6,3.9c0.9,0.3,1,0.7,0.9,2.3l0,0.5c0,0.7,0,1.4,0,2.1c0.1,3.6,0.1,6.9-1.7,10.3
		c-0.2,0.3-0.1,0.7,0.1,1c0.2,0.3,0.6,0.4,1,0.4c2.4-0.5,3.6-0.7,4.7-0.7c1.1,0,2.2,0.2,4.2,0.6c0.8,0.2,1.5,0.3,2.2,0.3
		c1.6,0,2.9-0.5,3.9-1.5c1.1-1.1,1.5-2.8,1.3-5c-0.2-2.8,1.6-4.4,2.7-5.1c0.2-0.1,0.4-0.2,0.5-0.3c0.8-0.5,1.6-1,1.6-1.9
		c0-0.9-0.6-1.6-1.7-2.3c-0.7-0.5-1.6-1.4-1.6-2.4c0-0.5,0.2-1,0.6-1.6c0.4,0,0.8,0,1.2,0c8.9,0,17.2-5.1,21.2-13.3
		c1.5-0.5,2.8-1.5,3.7-2.9l5.5-9.5C100,17.8,100.2,17.1,100.1,16.5z M44.1,41.1c-5.2-1.6-9.7-5.1-12.4-10c0.4-0.1,0.7-0.5,0.7-0.9
		c0-0.5-0.4-1-1-1c0,0,0,0,0,0c-1.6,0-3.2-0.9-4-2.3L22,17.4c-0.1-0.2-0.1-0.4-0.1-0.5c0-0.1,0.1-0.2,0.2-0.3c0.1,0,0.3,0,0.5,0.3
		l2.2,3.7c0,0,0,0,0,0c0.1,0.1,0.1,0.2,0.2,0.2c0,0,0,0,0.1,0c0.1,0.1,0.2,0.1,0.3,0.1c0,0,0,0,0,0c0.1,0,0.1,0,0.2,0
		c0,0,0.1,0,0.1,0c0,0,0.1,0,0.1,0c0.1,0,0.2-0.1,0.3-0.1c0,0,0,0,0,0c0,0,0,0,0,0c0,0,0.1-0.1,0.1-0.1c0.1,0,0.1-0.1,0.2-0.1
		c0,0,0-0.1,0.1-0.2c0-0.1,0.1-0.1,0.1-0.2c0-0.1,0-0.1,0-0.2c0-0.1,0-0.1,0-0.2c0-0.1,0-0.1-0.1-0.2c0-0.1,0-0.1-0.1-0.2l0,0
		c0,0,0,0,0,0l0,0l-2.9-5c-0.1-0.1-0.3-0.6,0.1-0.8c0.1,0,0.5,0,0.7,0.3l2.9,5c0.1,0.1,0.2,0.2,0.3,0.3c0,0,0,0,0,0
		c0.2,0.1,0.4,0.2,0.6,0.2c0,0,0.1,0,0.1,0c0,0,0,0,0,0c0.1,0,0.2,0,0.3-0.1c0,0,0,0,0,0c0,0,0,0,0,0c0.5-0.3,0.6-0.9,0.4-1.3
		l-2.9-5c0,0,0,0,0,0l-0.5-0.9c-0.1-0.1-0.3-0.6,0.1-0.8c0.1-0.1,0.4-0.1,0.7,0.3l0.5,0.9c0,0.1,0.1,0.2,0.1,0.2l0.6,0.9l2.3,3.9
		c0.3,0.5,0.9,0.6,1.3,0.4c0,0,0,0,0,0c0,0,0,0,0,0c0.5-0.3,0.6-0.9,0.3-1.3l-2.3-3.8l-0.7-1.2c-0.1-0.2-0.1-0.4,0.1-0.5
		c0.1-0.1,0.2-0.1,0.3,0c0.1,0.1,0.3,0.2,0.4,0.4l3.9,6.6l-0.1,2c0,0.5,0.4,1,0.9,1c0.5,0,1-0.4,1-0.9l0.1-3.8
		c0-0.2,0.1-0.3,0.1-0.3c0.1-0.1,0.2-0.1,0.3-0.1c0,0,0,0,0,0c0.2,0,0.3,0.1,0.3,0.1c0.1,0.1,0.1,0.2,0.1,0.3l0,7.1c0,0,0,0.4,0,0.7
		l0,0.6c-0.1,1-0.5,2-1.2,2.8c-0.4,0.4-0.3,1,0.1,1.4c0.2,0.2,0.4,0.2,0.6,0.2c0.1,0,0.2,0,0.3-0.1c2.6,2.9,5.8,5,9.4,6.2
		C44.3,37.3,43.9,39.2,44.1,41.1z M68,49.5c0.4,0.3,0.6,0.5,0.8,0.6c-0.2,0.1-0.4,0.3-0.6,0.4c-0.2,0.1-0.4,0.2-0.6,0.4
		c-2.5,1.6-3.8,4.1-3.6,6.9c0.1,1.6-0.1,2.8-0.8,3.6c-0.8,0.9-2.2,1.1-4.2,0.7c-2-0.4-3.3-0.7-4.6-0.7c-1,0-1.9,0.1-3.2,0.4
		c1.2-3.2,1.2-6.4,1.1-9.5c0-0.7,0-1.4,0-2.1l0-0.4c0-1.4,0.1-3.3-2.2-4.1c-2-0.7-3.3-2.1-3.9-3.8c-0.6-1.9-0.2-4,1.2-6
		c6-8.9,7.6-18.1,4.7-27.4c-0.7-2.3,0.2-2.6,2.1-3.3c0.4-0.2,0.9-0.3,1.3-0.5c1.3-0.6,1.7-0.5,1.7-0.5c0,0,0.2,0.3,0.1,1.5
		c-0.1,0.5,0.1,1,0.4,1.4c0.5,0.6,1.5,0.7,2.1,0.4c0.8-0.5,2-0.4,3.4-0.2c0.7,0.1,1.4,0.2,2.1,0.2c1.3,0,2.4-0.3,3.4-1
		c0.8-0.6,2.9,0.2,5.5,2.1c2.1,1.6,2.2,2.3,2.2,2.4c0,0.4-0.9,0.9-1.6,1.3c-0.6,0.3-1.2,0.7-1.7,1.2l-0.3,0.3
		c-1.6,1.5-3.5,3.2-2.1,6.6c0.7,1.7,0.2,3.3-0.4,5.2c-0.4,1.5-0.9,3-0.8,4.7c0,0.6-0.2,0.8-0.2,0.9c-0.2,0.3-0.8,0.6-2.4,0.6
		c-0.7,0-1.5-0.1-2-0.1c-0.4,0-0.8,0.2-1,0.5c-0.2,0.4-0.1,0.8,0.1,1.1c0.8,0.8,1.2,1.8,1.6,2.8c0.6,1.4,1.2,2.8,2.8,3.8
		c0.2,0.2,0.5,0.4,0.5,0.6c0,0.3-0.3,0.9-1.2,1.6c-1.4,1.2-2.1,2.5-2.1,3.9C65.7,47,66.5,48.3,68,49.5z M98,17.4l-5.4,9.5
		c-0.8,1.4-2.4,2.3-4,2.3c0,0,0,0,0,0c-0.5,0-1,0.4-1,1c0,0.4,0.3,0.8,0.7,0.9c-3.7,6.7-10.7,10.8-18.2,11c0.5-0.7,0.8-1.4,0.7-2.1
		c0-0.6-0.3-1.4-1.4-2.1c-0.6-0.4-1-0.9-1.3-1.4c6,0,11.8-2.7,15.9-7.3c0.1,0,0.2,0.1,0.3,0.1c0.2,0,0.5-0.1,0.6-0.2
		c0.4-0.4,0.4-1,0.1-1.4c-0.7-0.8-1.1-1.8-1.2-2.8l0-1.3l0-7.1c0-0.3,0.2-0.5,0.5-0.5c0.1,0,0.3,0.1,0.3,0.1
		c0.1,0.1,0.1,0.2,0.1,0.4l0.1,3.8c0,0.5,0.4,0.9,1,0.9c0,0,0,0,0,0c0.5,0,1-0.5,0.9-1l-0.1-2l3.9-6.6c0.2-0.4,0.4-0.5,0.7-0.4
		c0.2,0.1,0.2,0.3,0.1,0.5L90.9,13l-2.3,3.8c-0.3,0.5-0.1,1.1,0.3,1.3c0,0,0,0,0,0c0,0,0,0,0,0c0.5,0.3,1.1,0.1,1.3-0.4l2.2-3.8
		l0.6-1c0-0.1,0.1-0.2,0.1-0.2l0.5-0.9c0.3-0.4,0.6-0.4,0.7-0.4c0.4,0.2,0.2,0.7,0.1,0.8L94,13.2c0,0,0,0,0,0l-2.9,5
		c-0.3,0.5-0.1,1.1,0.4,1.3c0,0,0,0,0,0c0,0,0,0,0,0c0.1,0.1,0.2,0.1,0.3,0.1c0,0,0,0,0.1,0c0,0,0.1,0,0.1,0c0.2,0,0.4-0.1,0.6-0.2
		c0,0,0,0,0,0c0.1-0.1,0.2-0.2,0.3-0.3l2.9-5c0.2-0.3,0.6-0.4,0.7-0.3c0.4,0.2,0.2,0.7,0.1,0.8l-2.9,5l0,0c0,0,0,0,0,0l0,0
		c0,0,0,0.1-0.1,0.2c0,0.1-0.1,0.1-0.1,0.2c0,0.1,0,0.1,0,0.2c0,0.1,0,0.1,0,0.2c0,0.1,0.1,0.1,0.1,0.2c0,0.1,0,0.1,0.1,0.2
		c0,0.1,0.1,0.1,0.2,0.1c0,0,0.1,0.1,0.1,0.1c0,0,0,0,0,0c0,0,0,0,0,0c0.1,0.1,0.2,0.1,0.3,0.1c0,0,0.1,0,0.1,0c0,0,0.1,0,0.1,0
		c0.1,0,0.1,0,0.2,0c0,0,0,0,0,0c0.1,0,0.2-0.1,0.3-0.1c0,0,0,0,0.1,0c0.1-0.1,0.2-0.1,0.2-0.2c0,0,0,0,0,0l2.2-3.7
		c0.1-0.2,0.3-0.3,0.3-0.3c0.1,0,0.1,0,0.2,0c0.1,0.1,0.2,0.2,0.2,0.3C98.2,17,98.1,17.2,98,17.4z"/>
</g>
</svg>
