<?xml version="1.0" encoding="utf-8"?>
<!-- Generator: Adobe Illustrator 18.0.0, SVG Export Plug-In . SVG Version: 6.00 Build 0)  -->
<!DOCTYPE svg PUBLIC "-//W3C//DTD SVG 1.1//EN" "http://www.w3.org/Graphics/SVG/1.1/DTD/svg11.dtd">
<svg version="1.1" id="Layer_1" xmlns="http://www.w3.org/2000/svg" xmlns:xlink="http://www.w3.org/1999/xlink" x="0px" y="0px"
	 viewBox="0 0 120 66" enable-background="new 0 0 120 66" xml:space="preserve">
<g>
	<path fill="#FF6F48" d="M49.3,64.3h-3.6c-1.1,0-2-0.9-2-2v-5.6h7.6v5.6C51.3,63.4,50.4,64.3,49.3,64.3z M45.7,58.7v3.7l3.6,0.1
		c0,0,0.1,0,0.1-0.1v-3.7H45.7z"/>
	<path fill="#FF6F48" d="M74.3,64.3h-3.6c-1.1,0-2-0.9-2-2v-5.6h7.6v5.6C76.3,63.4,75.4,64.3,74.3,64.3z M70.6,58.7v3.7l3.6,0.1
		c0,0,0.1,0,0.1-0.1v-3.7H70.6z"/>
	<rect x="55.2" y="18.5" fill="#FF6F48" width="9.6" height="1.9"/>
	<g>
		<path fill="#FF6F48" d="M68.8,21.8c-1.3,0-2.3-1.1-2.3-2.3c0-1.3,1.1-2.3,2.3-2.3c1.3,0,2.3,1.1,2.3,2.3
			C71.1,20.7,70.1,21.8,68.8,21.8z M68.8,19c-0.2,0-0.4,0.2-0.4,0.4c0,0.2,0.2,0.4,0.4,0.4s0.4-0.2,0.4-0.4C69.2,19.2,69,19,68.8,19
			z"/>
		<path fill="#FF6F48" d="M73.9,21.8c-1.3,0-2.3-1.1-2.3-2.3c0-1.3,1.1-2.3,2.3-2.3c1.3,0,2.3,1.1,2.3,2.3
			C76.3,20.7,75.2,21.8,73.9,21.8z M73.9,19c-0.2,0-0.4,0.2-0.4,0.4c0,0.2,0.2,0.4,0.4,0.4s0.4-0.2,0.4-0.4
			C74.3,19.2,74.1,19,73.9,19z"/>
	</g>
	<g>
		<path fill="#FF6F48" d="M46.1,21.8c-1.3,0-2.3-1.1-2.3-2.3c0-1.3,1.1-2.3,2.3-2.3c1.3,0,2.3,1.1,2.3,2.3
			C48.4,20.7,47.4,21.8,46.1,21.8z M46.1,19c-0.2,0-0.4,0.2-0.4,0.4c0,0.2,0.2,0.4,0.4,0.4s0.4-0.2,0.4-0.4
			C46.5,19.2,46.3,19,46.1,19z"/>
		<path fill="#FF6F48" d="M51.2,21.8c-1.3,0-2.3-1.1-2.3-2.3c0-1.3,1.1-2.3,2.3-2.3c1.3,0,2.3,1.1,2.3,2.3
			C53.5,20.7,52.5,21.8,51.2,21.8z M51.2,19c-0.2,0-0.4,0.2-0.4,0.4c0,0.2,0.2,0.4,0.4,0.4s0.4-0.2,0.4-0.4
			C51.6,19.2,51.4,19,51.2,19z"/>
	</g>
	<path fill="#FF6F48" d="M72.9,33.1H47.2c-1.9,0-3.4-1.5-3.4-3.4v-3.7c0-1.9,1.5-3.4,3.4-3.4h25.7c1.9,0,3.4,1.5,3.4,3.4v3.7
		C76.3,31.5,74.8,33.1,72.9,33.1z M47.2,24.5c-0.8,0-1.5,0.7-1.5,1.5v3.7c0,0.8,0.7,1.5,1.5,1.5h25.7c0.8,0,1.5-0.7,1.5-1.5v-3.7
		c0-0.8-0.7-1.5-1.5-1.5H47.2z"/>
	<path fill="#FF6F48" d="M81.2,58.6H38.8c-1.6,0-2.9-1.3-2.9-2.9V43.3c0-1.6,1.3-2.9,2.9-2.9h0.5l0.1-21c0-0.1,0-0.1,0-0.2
		c0.8-3.4,3.8-5.7,7.2-5.7h26.5c3.7,0,6.9,2.8,7.4,6.4c0,0,0,0.1,0,0.1l0,20.4h0.5c1.6,0,2.9,1.3,2.9,2.9v12.3
		C84.1,57.3,82.8,58.6,81.2,58.6z M38.8,42.3c-0.6,0-1,0.4-1,1v12.3c0,0.6,0.5,1,1,1h42.3c0.6,0,1-0.4,1-1V43.3c0-0.6-0.4-1-1-1
		h-1.5c-0.5,0-1-0.4-1-1l0-21.3c-0.4-2.7-2.7-4.7-5.4-4.7H46.8c-2.5,0-4.7,1.7-5.3,4.1l-0.1,21.8c0,0.3-0.1,0.6-0.4,0.8
		c-0.2,0.1-0.4,0.2-0.6,0.2H38.8z"/>
	<g>
		<path fill="none" d="M76.8,40.4v-2.9c0-1.1-0.9-2-2-2H45.1c-1.1,0-2,0.9-2,2v2.9"/>
		<path fill="#FF6F48" d="M76.8,41.3c-0.5,0-1-0.4-1-1v-2.9c0-0.6-0.4-1-1-1H45.1c-0.6,0-1,0.4-1,1v2.9c0,0.5-0.4,1-1,1s-1-0.4-1-1
			v-2.9c0-1.6,1.3-2.9,2.9-2.9h29.8c1.6,0,2.9,1.3,2.9,2.9v2.9C77.8,40.9,77.4,41.3,76.8,41.3z"/>
	</g>
	<path fill="#FF6F48" d="M60,30.7c-0.5,0-1-0.4-1-1v-3.8c0-0.5,0.4-1,1-1s1,0.4,1,1v3.8C61,30.3,60.5,30.7,60,30.7z"/>
	<path fill="#FF6F48" d="M79.6,51.5H40c-0.5,0-1-0.4-1-1s0.4-1,1-1h39.6c0.5,0,1,0.4,1,1S80.2,51.5,79.6,51.5z"/>
	<g>
		<g>
			<g>
				<rect x="46.3" y="38.9" fill="#FF6F48" width="27.4" height="1.9"/>
				<rect x="46.3" y="41.8" fill="#FF6F48" width="27.4" height="1.9"/>
			</g>
			<g>
				<rect x="46.3" y="44.8" fill="#FF6F48" width="27.4" height="1.9"/>
			</g>
		</g>
	</g>
	<path fill="#FF6F48" d="M41.3,48.7c-1.6,0-3-1.3-3-3c0-1.6,1.3-3,3-3c1.6,0,3,1.3,3,3C44.3,47.4,42.9,48.7,41.3,48.7z M41.3,44.8
		c-0.6,0-1,0.5-1,1s0.5,1,1,1c0.6,0,1-0.5,1-1S41.9,44.8,41.3,44.8z"/>
	<path fill="#FF6F48" d="M78.1,48.7c-1.6,0-3-1.3-3-3c0-1.6,1.3-3,3-3s3,1.3,3,3C81.1,47.4,79.7,48.7,78.1,48.7z M78.1,44.8
		c-0.6,0-1,0.5-1,1s0.5,1,1,1s1-0.5,1-1S78.7,44.8,78.1,44.8z"/>
	<rect x="53" y="52.9" fill="#FF6F48" width="14.1" height="1.9"/>
	<rect x="69.7" y="52.9" fill="#FF6F48" width="5.6" height="1.9"/>
	<rect x="44.5" y="52.9" fill="#FF6F48" width="5.6" height="1.9"/>
	<g>
		<g>
			<path fill="#FF6F48" d="M73.2,15.4h-7v-1.9h6V6h-13V4.1h14c0.5,0,1,0.4,1,1v9.4C74.2,14.9,73.8,15.4,73.2,15.4z"/>
			<path fill="#FF6F48" d="M66.1,15.4H46.8c-0.5,0-1-0.4-1-1V8.7c0-0.5,0.4-1,1-1h19.3c0.5,0,1,0.4,1,1v5.7
				C67,14.9,66.6,15.4,66.1,15.4z M47.7,13.4h17.4V9.7H47.7V13.4z"/>
			<path fill="#FF6F48" d="M59.3,9.7H48.8c-0.5,0-1-0.4-1-1V2.6c0-0.5,0.4-1,1-1h10.5c0.5,0,1,0.4,1,1v6.1
				C60.2,9.3,59.8,9.7,59.3,9.7z M49.8,7.7h8.5V3.6h-8.5V7.7z"/>
			<rect x="49.1" y="8.7" fill="#FF6F48" width="1.9" height="5.7"/>
			<rect x="51.8" y="2.6" fill="#FF6F48" width="1.9" height="6.1"/>
			<rect x="60.9" y="5" fill="#FF6F48" width="1.9" height="3.7"/>
			<rect x="62.3" y="8.7" fill="#FF6F48" width="1.9" height="5.7"/>
			<rect x="69.8" y="5" fill="#FF6F48" width="1.9" height="9.4"/>
		</g>
	</g>
</g>
</svg>
