<?xml version="1.0" encoding="utf-8"?>
<!-- Generator: Adobe Illustrator 18.0.0, SVG Export Plug-In . SVG Version: 6.00 Build 0)  -->
<!DOCTYPE svg PUBLIC "-//W3C//DTD SVG 1.1//EN" "http://www.w3.org/Graphics/SVG/1.1/DTD/svg11.dtd">
<svg version="1.1" id="Layer_1" xmlns="http://www.w3.org/2000/svg" xmlns:xlink="http://www.w3.org/1999/xlink" x="0px" y="0px"
	 viewBox="0 0 120 66" enable-background="new 0 0 120 66" xml:space="preserve">
<g>
	<g>
		<path fill="#FF6F48" d="M77,27.1c-0.5-0.3-1.1-0.1-1.3,0.4c-0.3,0.5-0.1,1.1,0.4,1.3c1.1,0.6,2.1,1.4,2.9,2.2
			c0.2,0.2,0.4,0.3,0.7,0.3c0.3,0,0.5-0.1,0.7-0.3c0.4-0.4,0.4-1,0-1.4C79.3,28.6,78.2,27.8,77,27.1z"/>
		<path fill="#FF6F48" d="M73.2,25.4c-1.3-0.4-2.7-0.7-4-0.8c-0.5-0.1-1,0.3-1.1,0.9c-0.1,0.5,0.3,1,0.9,1.1
			c1.2,0.1,2.4,0.4,3.6,0.8c0.1,0,0.2,0,0.3,0c0.4,0,0.8-0.3,0.9-0.7C74,26.1,73.7,25.6,73.2,25.4z"/>
		<path fill="#FF6F48" d="M88,13c-2.9-4.6-7.9-7.3-13.3-7.3c-3,0-5.9,0.8-8.4,2.5c-3.6,2.3-6,5.8-6.9,9.9c-0.9,4.1-0.2,8.3,2.1,11.9
			c2.9,4.6,7.9,7.3,13.3,7.3c3,0,5.9-0.8,8.4-2.5c3.6-2.3,6-5.8,6.9-9.9C91,20.8,90.2,16.6,88,13z M88.1,24.5
			c-0.8,3.6-3,6.7-6.1,8.7c-2.2,1.4-4.8,2.2-7.4,2.2c-4.8,0-9.1-2.4-11.7-6.4c-0.3-0.5-0.6-1-0.9-1.6c1.1-0.3,2.1-0.6,3.2-0.7
			c0.5-0.1,0.9-0.6,0.9-1.1c-0.1-0.5-0.6-0.9-1.1-0.9c-1.2,0.2-2.5,0.4-3.7,0.8c-0.7-2.2-0.8-4.6-0.3-7c0.8-3.6,3-6.7,6.1-8.7
			c2.2-1.4,4.8-2.2,7.4-2.2c4.8,0,9.1,2.4,11.7,6.4C88.3,17.2,88.9,20.9,88.1,24.5z"/>
	</g>
	<g>
		<path fill="#FF6F48" d="M33.4,18.9c-0.6,0.1-1,0.2-1,0.2c-1,0.3-2,0.6-3,1c-0.5,0.2-0.7,0.8-0.5,1.3c0.2,0.4,0.5,0.6,0.9,0.6
			c0.1,0,0.3,0,0.4-0.1c0.9-0.4,1.8-0.7,2.7-0.9c0,0,0.3-0.1,0.8-0.1c0.5-0.1,0.9-0.6,0.8-1.1C34.4,19.2,33.9,18.9,33.4,18.9z"/>
		<path fill="#FF6F48" d="M25.8,22.1c-1.1,0.7-2.2,1.6-3.2,2.5c-0.4,0.4-0.4,1,0,1.4c0.2,0.2,0.5,0.3,0.7,0.3c0.2,0,0.5-0.1,0.7-0.3
			c0.9-0.9,1.9-1.6,2.9-2.3c0.5-0.3,0.6-0.9,0.3-1.4C26.9,21.9,26.3,21.8,25.8,22.1z"/>
		<path fill="#FF6F48" d="M41.6,19.8c-1.3-0.5-2.6-0.8-4.1-0.9c-0.5,0-1,0.3-1.1,0.9c0,0.5,0.3,1,0.9,1.1c1.3,0.1,2.5,0.4,3.5,0.8
			c0.1,0,0.2,0.1,0.3,0.1c0.4,0,0.8-0.2,0.9-0.6C42.3,20.5,42.1,19.9,41.6,19.8z"/>
		<path fill="#FF6F48" d="M19.9,27.6c-1.5,1.9-2.2,3.4-2.2,3.5c-0.2,0.5,0,1.1,0.5,1.3c0.1,0.1,0.3,0.1,0.4,0.1
			c0.4,0,0.7-0.2,0.9-0.6c0,0,0.6-1.4,2-3.1c0.3-0.4,0.2-1-0.2-1.4C20.8,27.1,20.2,27.2,19.9,27.6z"/>
		<path fill="#FF6F48" d="M48,25.1c-0.8-1.2-1.7-2.3-2.7-3.2c-0.4-0.3-1-0.3-1.4,0.1c-0.3,0.4-0.3,1,0.1,1.4
			c0.9,0.7,1.7,1.7,2.3,2.7c0.2,0.3,0.5,0.5,0.8,0.5c0.2,0,0.4,0,0.5-0.1C48.1,26.1,48.2,25.5,48,25.1z"/>
		<path fill="#FF6F48" d="M52.3,30.8c-0.9-0.5-1.7-1.3-2.5-2.4c-0.3-0.4-0.9-0.6-1.4-0.3c-0.4,0.3-0.6,0.9-0.3,1.4
			c0.9,1.3,1.9,2.3,3.1,3c0.2,0.1,0.3,0.1,0.5,0.1c0.3,0,0.7-0.2,0.8-0.5C52.9,31.7,52.7,31.1,52.3,30.8z"/>
		<path fill="#FF6F48" d="M102,58.7L90.6,40.7c-0.4-0.6-0.8-0.9-0.9-1l-3-2.3c3.7-2.8,6.3-6.9,7.4-11.5c1.2-5.2,0.2-10.5-2.6-15
			C87.8,5,81.5,1.6,74.6,1.6c-3.8,0-7.4,1.1-10.6,3.1c-4.5,2.8-7.6,7.3-8.7,12.4c-1.1,4.9-0.3,9.9,2.2,14.3c-0.7,0.2-1.3,0.3-2,0.3
			c-0.5,0-1,0.6-1,1.2c0,0.5,0.4,1.1,1,1.1c0,0,0,0,0,0c1,0,2-0.4,3-0.7c3.7,5.2,9.7,8.1,16.1,8.1c2.4,0,4.8-0.5,7.1-1.4l1.1,4.1
			c0,0.1,0.2,0.7,0.5,1.1l11.5,18.1c0.4,0.7,1.1,1.1,1.9,1.1c0.4,0,0.9-0.1,1.2-0.4l3.4-2.1c0.5-0.3,0.9-0.8,1-1.4
			C102.5,59.9,102.4,59.3,102,58.7z M59.5,31.1c-2.6-4-3.4-8.8-2.4-13.5c1-4.7,3.8-8.7,7.9-11.2c2.9-1.8,6.2-2.8,9.6-2.8
			c6.2,0,11.8,3.1,15.1,8.3c2.6,4,3.4,8.8,2.4,13.5c-1,4.4-3.5,8.7-7.1,10.7h0l-1.9,1.2c-2.6,1.4-5.5,2.2-8.5,2.2
			C68.5,39.4,62.8,36.3,59.5,31.1z M100.4,60.1c0,0.1,0,0.1-0.1,0.2l-3.4,2.1c-0.2,0.1-0.4,0-0.5-0.1L85,44.2
			c-0.1-0.2-0.2-0.5-0.3-0.6l-1.1-4.3l0.2-0.1c0.4-0.2,0.8-0.4,1.2-0.7l3.5,2.7c0,0,0.3,0.2,0.5,0.6l11.5,18.1
			C100.4,59.9,100.4,60,100.4,60.1z"/>
	</g>
	<path fill="#FF6F48" d="M75.2,9.8c-3.1,0-5.6,2.5-5.6,5.6c0,3.7,1.5,6.6,5,9.5c0.2,0.2,0.4,0.2,0.6,0.2c0.2,0,0.4-0.1,0.6-0.2
		c3.5-2.9,5-5.7,5-9.6C80.8,12.3,78.3,9.8,75.2,9.8z M75.2,22.9c-2.6-2.4-3.7-4.6-3.7-7.5c0-2,1.6-3.7,3.7-3.7c2,0,3.7,1.6,3.7,3.7
		C78.8,18.4,77.8,20.6,75.2,22.9z"/>
	<path fill="#FF6F48" d="M75.2,12.6c-1.5,0-2.8,1.3-2.8,2.8s1.3,2.8,2.8,2.8s2.8-1.3,2.8-2.8S76.7,12.6,75.2,12.6z M75.2,16.2
		c-0.5,0-0.8-0.4-0.8-0.8s0.4-0.8,0.8-0.8c0.5,0,0.8,0.4,0.8,0.8S75.7,16.2,75.2,16.2z"/>
</g>
</svg>
