<?xml version="1.0" encoding="utf-8"?>
<!-- Generator: Adobe Illustrator 18.0.0, SVG Export Plug-In . SVG Version: 6.00 Build 0)  -->
<!DOCTYPE svg PUBLIC "-//W3C//DTD SVG 1.1//EN" "http://www.w3.org/Graphics/SVG/1.1/DTD/svg11.dtd">
<svg version="1.1" id="Layer_1" xmlns="http://www.w3.org/2000/svg" xmlns:xlink="http://www.w3.org/1999/xlink" x="0px" y="0px"
	 viewBox="0 0 120 66" enable-background="new 0 0 120 66" xml:space="preserve">
<g>
	<path fill="#FF6F48" d="M44.3,63.4h-2.2c-1.1,0-2.1-0.9-2.1-2.1v-9.7h6.3v9.7C46.3,62.5,45.4,63.4,44.3,63.4z M41.9,53.5v7.9
		c0,0.1,0.1,0.2,0.2,0.2h2.2c0.1,0,0.2-0.1,0.2-0.2v-7.9H41.9z"/>
	<path fill="#FF6F48" d="M77.9,63.4h-2.2c-1.1,0-2.1-0.9-2.1-2.1v-9.7h6.3v9.7C79.9,62.5,79,63.4,77.9,63.4z M75.5,53.5v7.9
		c0,0.1,0.1,0.2,0.2,0.2h2.2c0.1,0,0.2-0.1,0.2-0.2v-7.9H75.5z"/>
	<path fill="#FF6F48" d="M70.8,31.6H49.2c-1.7,0-3.1-1.4-3.1-3.1c0,0,0-0.1,0-0.1l0.5-3.9c0-1.7,1.4-3,3.1-3h20.4c1.7,0,3,1.3,3.1,3
		l0.6,3.9c0,0,0,0.1,0,0.1C73.8,30.2,72.5,31.6,70.8,31.6z M48,28.5c0,0.7,0.6,1.2,1.3,1.2h21.5c0.7,0,1.2-0.5,1.3-1.2l-0.6-3.9
		c0,0,0-0.1,0-0.1c0-0.7-0.6-1.3-1.3-1.3H49.7c-0.7,0-1.3,0.6-1.3,1.3c0,0,0,0.1,0,0.1L48,28.5z"/>
	<path fill="none" stroke="#4D4A49" stroke-width="2" stroke-miterlimit="10" d="M46.3,17.1"/>
	<g>
		<g>
			<path fill="#FF6F48" d="M75.3,18h-8v-1.8h7.1v-9H59.2V5.4h16.1c0.5,0,0.9,0.4,0.9,0.9v10.8C76.2,17.6,75.8,18,75.3,18z"/>
			<path fill="#FF6F48" d="M67,18H44.8c-0.5,0-0.9-0.4-0.9-0.9v-6.6c0-0.5,0.4-0.9,0.9-0.9H67c0.5,0,0.9,0.4,0.9,0.9v6.6
				C68,17.6,67.5,18,67,18z M45.7,16.2h20.4v-4.7H45.7V16.2z"/>
			<path fill="#FF6F48" d="M59.2,11.4h-12c-0.5,0-0.9-0.4-0.9-0.9v-7c0-0.5,0.4-0.9,0.9-0.9h12c0.5,0,0.9,0.4,0.9,0.9v7
				C60.1,11,59.7,11.4,59.2,11.4z M48.1,9.6h10.2V4.4H48.1V9.6z"/>
			<rect x="47.7" y="10.5" fill="#FF6F48" width="1.8" height="6.6"/>
			<rect x="50.9" y="3.5" fill="#FF6F48" width="1.8" height="7"/>
			<rect x="61.2" y="6.3" fill="#FF6F48" width="1.8" height="4.2"/>
			<rect x="62.9" y="10.5" fill="#FF6F48" width="1.8" height="6.6"/>
			<rect x="71.6" y="6.3" fill="#FF6F48" width="1.8" height="10.8"/>
		</g>
	</g>
	<path fill="#FF6F48" d="M78.5,35.8c-0.5,0-0.9-0.3-0.9-0.8L76,19.1c-0.2-0.7-0.8-1.1-1.4-1.1H45.4c-0.8,0-1.3,0.4-1.5,1.2
		c0,0.4-1.1,11.5-1.5,15.8c0,0.5-0.5,0.9-1,0.8c-0.5,0-0.9-0.5-0.8-1c1.5-15.8,1.5-16,1.5-16c0.3-1.6,1.6-2.6,3.3-2.6h29.2
		c1.5,0,2.9,1.1,3.2,2.6c0,0,0,0.1,0,0.1l1.6,15.9C79.4,35.3,79.1,35.7,78.5,35.8C78.5,35.8,78.5,35.8,78.5,35.8z"/>
	<path fill="#FF6F48" d="M82.3,53.5H37.6c-0.4,0-0.8-0.3-0.9-0.7c0-0.3-1.2-6.7-0.5-13c0.1-2.7,2.3-4.9,5.1-4.9h2.7
		c0.5,0,0.9,0.4,0.9,0.9s-0.4,0.9-0.9,0.9h-2.7c-1.8,0-3.2,1.4-3.3,3.2c-0.5,4.9,0.1,9.9,0.4,11.8h43.3c0.3-1.7,1-6.2,0.4-11.7
		c-0.1-1.8-1.5-3.2-3.3-3.2h-2.7c-0.5,0-0.9-0.4-0.9-0.9s0.4-0.9,0.9-0.9h2.7c2.8,0,5,2.2,5.1,5c0.7,7.3-0.6,12.8-0.6,13
		C83.1,53.2,82.8,53.5,82.3,53.5z"/>
	<path fill="#FF6F48" d="M75.3,49.6H43.7c-0.5,0-0.9-0.4-0.9-0.9V38.5c0-0.5,0.4-0.9,0.9-0.9c0.5,0,0.9,0.4,0.9,0.9v9.2h29.8v-9.2
		c0-0.5,0.4-0.9,0.9-0.9s0.9,0.4,0.9,0.9v10.1C76.2,49.2,75.8,49.6,75.3,49.6z"/>
	<g>
		<g>
			<path fill="#FF6F48" d="M56.7,45.8c-0.4,0-0.7-0.3-0.7-0.7v-9.5c0-0.4,0.3-0.7,0.7-0.7c0.4,0,0.7,0.3,0.7,0.7v9.5
				C57.4,45.5,57.1,45.8,56.7,45.8z"/>
			<path fill="#FF6F48" d="M62.3,45.8c-0.4,0-0.7-0.3-0.7-0.7v-9.5c0-0.4,0.3-0.7,0.7-0.7s0.7,0.3,0.7,0.7v9.5
				C63,45.5,62.7,45.8,62.3,45.8z"/>
			<path fill="#FF6F48" d="M59.5,42.7c-0.4,0-0.7-0.3-0.7-0.7v-6.3c0-0.4,0.3-0.7,0.7-0.7s0.7,0.3,0.7,0.7V42
				C60.2,42.4,59.9,42.7,59.5,42.7z"/>
			<circle fill="#FF6F48" cx="59.5" cy="44.9" r="0.8"/>
		</g>
	</g>
</g>
</svg>
